<svg xmlns="http://www.w3.org/2000/svg" enable-background="new 0 0 300 300" viewBox="0 0 300 300"><path fill="#ffc10f" d="M274.755 211.486c-3.988-8.22-7.223-16.694-8.548-25.475-2.448-16.222 1.915-31.32 4.044-46.726 2.129-15.406 1.329-33.681-8.937-46.726-11.325-14.39-29.387-16.634-44.712-15.693-15.326.94-31.493 3.543-46.32-5.114-10.312-6.02-18.41-16.702-28.305-23.792-20.407-14.622-47.46-10.153-58.63 9.687-4.873 8.654-6.932 19.526-12.605 27.455-5.302 7.409-13.275 11.587-20.155 17.104-15.814 12.684-26.092 33.277-28.184 56.471-2.091 23.194 4.024 48.754 16.77 70.09 6.157 10.304 13.984 19.781 23.356 26.03H253.57c13.492 0 24.43-12.95 24.43-28.923 0-5.049-1.12-10.01-3.245-14.388z" class="colorebf2ff svgShape"/><path fill="#fbff06" d="M213.41 257.067h6.046l14.907-38.604-5.836-1.35zM250.291 217.113l-5.836 1.35 14.908 38.604h6.046zM70.483 257.067h6.046l14.907-38.604-5.836-1.35zM107.364 217.113l-5.836 1.35 14.909 38.604h6.045z" class="colorbbcaea svgShape"/><path fill="#fbff06" d="M274.252 206.678H50.81a3.733 3.733 0 0 0-3.733 3.733v7.492a3.734 3.734 0 0 0 3.733 3.733h223.442a3.734 3.734 0 0 0 3.733-3.733v-7.492a3.733 3.733 0 0 0-3.733-3.733z" class="colorbbcaea svgShape"/><path fill="#f8e8d1" d="M274.252 206.678H50.81a3.733 3.733 0 0 0-3.733 3.733v1.259h230.908v-1.259a3.733 3.733 0 0 0-3.733-3.733z" class="colord1dcf8 svgShape"/><path fill="#ba9561" d="M262.158 168.207c-1.392.956-2.324 2.745-2.862 4.697-.747 2.71-1.175 8.417-1.036 10.423.099 1.43.497 5.294 1.192 6.492 1.01 1.741 1.803 3.756 3.39 3.808.34.011.66-.039.967-.136 2.405-.759 4.967-5.187 3.28-10.876-.13-.44-.298-.863-.456-1.28-.789-2.081-1.696-4.243-1.65-6.455.037-1.769.941-4.34-.146-6.136-.815-1.347-1.875-1.09-2.68-.537z" class="color61ba76 svgShape"/><path fill="#d1ad7c" d="M263.505 194.467a.336.336 0 0 1-.393-.265c-3.3-16.762-.802-22.921-.694-23.175a.337.337 0 0 1 .619.262c-.025.06-2.515 6.273.735 22.783a.336.336 0 0 1-.265.395h-.002z" class="color7cd194 svgShape"/><path fill="#d1ad7c" d="M274.242 188.742c.47-2.082-.376-4.427.238-6.465.487-1.619 1.828-2.824 2.719-4.26.993-1.6 1.309-3.952-.642-5.282-1.052-.716-2.797-.788-3.835-.267-4.196 2.104-2.087 7.548-4.065 10.989-.365.635-2.432 3.113-4.149 5.077-1.27 1.453-1.49 3.508-.57 5.372l.001.002c1.093 2.214 4.346 2.722 5.7.885.773-1.05 1.594-2.031 2.323-2.629 1.116-.916 1.97-2.052 2.28-3.422z" class="color7cd194 svgShape"/><path fill="#ba9561" d="m267.155 196.323.007-.002a.336.336 0 0 0 .267-.394c-.869-4.464 4.076-6.372 4.374-11.52.282-4.885 2.303-8.052 2.324-8.083a.336.336 0 0 0-.564-.366c-.088.134-2.14 3.35-2.431 8.41-.131 2.26-1.258 3.88-2.348 5.445-1.299 1.865-2.524 3.627-2.016 6.242.035.18.207.298.387.268z" class="color61ba76 svgShape"/><path fill="#d1ad7c" d="M250.848 183.706c-.751-1.513-2.275-2.477-3.394-3.744-1.247-1.412-1.952-3.677-.25-5.314.916-.883 2.624-1.246 3.735-.906 2.399.733 3.279 2.969 3.857 5.13.472 1.765.842 3.632 1.99 5.023.466.565 2.92 2.662 4.94 4.31 1.497 1.22 2.058 3.21 1.462 5.202v.001c-.707 2.366-3.829 3.411-5.47 1.827-.94-.906-1.913-1.735-2.731-2.202-4.594-2.625-2.66-6.348-4.139-9.327z" class="color7cd194 svgShape"/><path fill="#ba9561" d="M260.422 196.328h-.008a.336.336 0 0 1-.328-.345c.108-4.546-5.086-5.6-6.242-10.625-1.096-4.768-3.619-7.552-3.644-7.58-.302-.327.194-.782.494-.455.109.118 2.67 2.944 3.805 7.885 1.106 4.804 6.377 5.852 6.26 10.791a.336.336 0 0 1-.337.329z" class="color61ba76 svgShape"/><path fill="#963333" d="m268.544 205.577 2.136-10.473h-13.958l2.136 10.473c.13.64.694 1.1 1.348 1.1h6.99c.654 0 1.217-.46 1.348-1.1z" class="color963633 svgShape"/><path fill="#aa4444" d="M271.156 192.7h-14.91a.688.688 0 0 0-.688.687v1.61c0 .38.308.688.688.688h14.91c.38 0 .688-.308.688-.688v-1.61a.688.688 0 0 0-.688-.688z" class="coloraa4944 svgShape"/><path fill="#f8e8d1" d="M274.395 253.473H25.59a3.59 3.59 0 0 0-3.59 3.59v.008a3.59 3.59 0 0 0 3.59 3.59h248.805a3.59 3.59 0 0 0 3.59-3.59v-.008a3.59 3.59 0 0 0-3.59-3.59z" class="colord1dcf8 svgShape"/><path fill="#000000" d="M228.824 99.817H116.352a8.024 8.024 0 0 0-8.024 8.024v77.998a8.024 8.024 0 0 0 8.024 8.024h112.472a8.024 8.024 0 0 0 8.025-8.024V107.84a8.024 8.024 0 0 0-8.025-8.024z" class="color20154f svgShape"/><path fill="#000000" d="M161.321 186.622h35.32v18.151h-35.32z" class="color20154f svgShape"/><path fill="#515151" d="M200.617 201.78h-43.273a2.992 2.992 0 0 0 0 5.985h43.273a2.992 2.992 0 1 0 0-5.984zM235.434 99.817H122.962a8.024 8.024 0 0 0-8.025 8.024v77.998a8.024 8.024 0 0 0 8.025 8.024h112.472a8.024 8.024 0 0 0 8.024-8.024V107.84a8.024 8.024 0 0 0-8.024-8.024z" class="color38297a svgShape"/><path fill="#f8e8d1" d="M236.056 110.383v67.97a3.17 3.17 0 0 1-3.17 3.17H125.51a3.17 3.17 0 0 1-3.17-3.17v-67.97c0-1.74 1.419-3.159 3.17-3.159h107.376a3.167 3.167 0 0 1 3.17 3.16z" class="colord1dcf8 svgShape"/><path fill="#ffffff" d="M134.927 91.314v73.023a3.063 3.063 0 0 0 3.063 3.063h82.416a3.063 3.063 0 0 0 3.063-3.063V91.314h-88.542z" class="colorfff svgShape"/><path fill="#fcb95c" d="M220.406 84.327H137.99a3.063 3.063 0 0 0-3.063 3.063V94.6h88.542V87.39a3.063 3.063 0 0 0-3.063-3.063z" class="color5cb8fc svgShape"/><path fill="#ffffff" d="m218.626 87.727-.484-.484-1.737 1.737-1.737-1.737-.484.484 1.737 1.737-1.737 1.737.484.484 1.737-1.737 1.737 1.737.484-.484-1.737-1.737zM204.193 91.688h4.448V87.24h-4.448v4.448zm3.764-3.764v3.08h-3.08v-3.08h3.08zM194.41 89.122h4.038v.684h-4.038z" class="colorfff svgShape"/><path fill="#f8e8d1" d="M204.075 107.92H154.32c-.897 0-1.625.728-1.625 1.626v7.76c0 .898.728 1.625 1.625 1.625h49.754c.897 0 1.625-.727 1.625-1.625v-7.76c0-.898-.728-1.625-1.625-1.625zM204.075 128.927H154.32c-.897 0-1.625.728-1.625 1.625v7.76c0 .898.728 1.625 1.625 1.625h49.754c.897 0 1.625-.727 1.625-1.625v-7.76c0-.897-.728-1.625-1.625-1.625z" class="colord1dcf8 svgShape"/><path fill="#515151" d="M166.24 136.013a.245.245 0 0 1-.081-.187c0-.023.048-.345.145-.963-.485.394-.74.597-.764.609a.282.282 0 0 1-.364-.11.285.285 0 0 1-.036-.145c0-.102.042-.176.127-.219l.91-.354-.91-.355a.243.243 0 0 1-.127-.227c0-.055.012-.104.036-.146.06-.09.14-.136.236-.136.043 0 .085.012.128.036.025.012.279.216.764.61-.097-.62-.145-.94-.145-.965 0-.073.027-.135.082-.186a.272.272 0 0 1 .381 0 .247.247 0 0 1 .082.186c0 .025-.047.346-.145.965.485-.394.74-.598.765-.61a.202.202 0 0 1 .127-.036c.097 0 .175.045.237.136a.318.318 0 0 1 .036.137.265.265 0 0 1-.128.236l-.91.355.91.354a.245.245 0 0 1 .128.228.318.318 0 0 1-.036.137.283.283 0 0 1-.364.109c-.025-.012-.28-.215-.765-.61.098.619.145.941.145.964a.245.245 0 0 1-.082.187.266.266 0 0 1-.19.077.269.269 0 0 1-.191-.077zM170.034 136.013a.245.245 0 0 1-.082-.187c0-.023.05-.345.146-.963-.485.394-.74.597-.764.609a.282.282 0 0 1-.364-.11.285.285 0 0 1-.036-.145c0-.102.042-.176.127-.219l.91-.354-.91-.355a.243.243 0 0 1-.127-.227c0-.055.012-.104.036-.146.06-.09.14-.136.236-.136.043 0 .085.012.128.036.025.012.279.216.764.61-.097-.62-.146-.94-.146-.965 0-.073.028-.135.082-.186s.119-.077.192-.077c.072 0 .137.025.19.077a.247.247 0 0 1 .082.186c0 .025-.047.346-.145.965.485-.394.74-.598.764-.61a.202.202 0 0 1 .127-.036c.098 0 .176.045.238.136a.318.318 0 0 1 .036.137.265.265 0 0 1-.128.236l-.91.355.91.354a.245.245 0 0 1 .128.228.318.318 0 0 1-.036.137.283.283 0 0 1-.365.109c-.024-.012-.279-.215-.764-.61.098.619.145.941.145.964a.245.245 0 0 1-.082.187.266.266 0 0 1-.19.077.269.269 0 0 1-.192-.077zM173.828 136.013a.245.245 0 0 1-.082-.187c0-.023.05-.345.146-.963-.485.394-.74.597-.764.609a.282.282 0 0 1-.364-.11.285.285 0 0 1-.036-.145c0-.102.042-.176.127-.219l.91-.354-.91-.355a.243.243 0 0 1-.127-.227c0-.055.012-.104.036-.146.06-.09.14-.136.236-.136.043 0 .085.012.128.036.025.012.279.216.764.61-.097-.62-.146-.94-.146-.965 0-.073.028-.135.082-.186s.119-.077.192-.077c.072 0 .137.025.19.077a.247.247 0 0 1 .082.186c0 .025-.048.346-.145.965.485-.394.74-.598.764-.61a.202.202 0 0 1 .127-.036c.098 0 .176.045.238.136a.318.318 0 0 1 .036.137.265.265 0 0 1-.128.236l-.91.355.91.354a.245.245 0 0 1 .128.228.318.318 0 0 1-.036.137.283.283 0 0 1-.365.109c-.024-.012-.279-.215-.764-.61.097.619.145.941.145.964a.245.245 0 0 1-.082.187.266.266 0 0 1-.19.077.269.269 0 0 1-.192-.077zM177.622 136.013a.245.245 0 0 1-.082-.187c0-.023.05-.345.146-.963-.485.394-.74.597-.764.609a.282.282 0 0 1-.364-.11.285.285 0 0 1-.036-.145c0-.102.042-.176.127-.219l.91-.354-.91-.355a.243.243 0 0 1-.127-.227c0-.055.012-.104.036-.146.06-.09.14-.136.236-.136.043 0 .085.012.128.036.025.012.279.216.764.61-.097-.62-.146-.94-.146-.965 0-.073.028-.135.082-.186s.119-.077.192-.077c.072 0 .137.025.19.077a.247.247 0 0 1 .082.186c0 .025-.048.346-.145.965.485-.394.74-.598.764-.61a.202.202 0 0 1 .127-.036c.098 0 .176.045.238.136a.318.318 0 0 1 .036.137.265.265 0 0 1-.128.236l-.91.355.91.354a.245.245 0 0 1 .128.228.318.318 0 0 1-.036.137.283.283 0 0 1-.365.109c-.024-.012-.279-.215-.764-.61.097.619.145.941.145.964a.245.245 0 0 1-.082.187.266.266 0 0 1-.19.077.269.269 0 0 1-.192-.077zM181.416 136.013a.245.245 0 0 1-.082-.187c0-.023.05-.345.146-.963-.486.394-.74.597-.764.609a.282.282 0 0 1-.364-.11.285.285 0 0 1-.036-.145c0-.102.042-.176.127-.219l.91-.354-.91-.355a.243.243 0 0 1-.127-.227c0-.055.011-.104.036-.146.06-.09.14-.136.236-.136.043 0 .085.012.128.036.025.012.278.216.764.61-.097-.62-.146-.94-.146-.965 0-.073.028-.135.082-.186s.118-.077.192-.077c.072 0 .136.025.19.077a.247.247 0 0 1 .082.186c0 .025-.048.346-.145.965.485-.394.74-.598.764-.61a.202.202 0 0 1 .127-.036c.098 0 .176.045.238.136a.318.318 0 0 1 .036.137.265.265 0 0 1-.128.236l-.91.355.91.354a.245.245 0 0 1 .128.228.318.318 0 0 1-.036.137.283.283 0 0 1-.365.109c-.024-.012-.279-.215-.764-.61.097.619.145.941.145.964a.245.245 0 0 1-.082.187.266.266 0 0 1-.19.077.269.269 0 0 1-.192-.077zM185.21 136.013a.245.245 0 0 1-.082-.187c0-.023.05-.345.146-.963-.486.394-.74.597-.764.609a.282.282 0 0 1-.364-.11.285.285 0 0 1-.036-.145c0-.102.042-.176.127-.219l.91-.354-.91-.355a.243.243 0 0 1-.127-.227c0-.055.011-.104.036-.146.06-.09.14-.136.236-.136.043 0 .085.012.128.036.024.012.278.216.764.61-.097-.62-.146-.94-.146-.965 0-.073.028-.135.082-.186s.118-.077.192-.077c.072 0 .136.025.19.077a.247.247 0 0 1 .082.186c0 .025-.048.346-.145.965.485-.394.74-.598.764-.61a.202.202 0 0 1 .127-.036c.098 0 .176.045.238.136a.318.318 0 0 1 .036.137.265.265 0 0 1-.128.236l-.91.355.91.354a.245.245 0 0 1 .128.228.318.318 0 0 1-.036.137.283.283 0 0 1-.365.109c-.024-.012-.279-.215-.764-.61.097.619.145.941.145.964a.245.245 0 0 1-.082.187.266.266 0 0 1-.19.077.269.269 0 0 1-.192-.077zM189.004 136.013a.245.245 0 0 1-.082-.187c0-.023.049-.345.146-.963-.486.394-.74.597-.764.609a.282.282 0 0 1-.364-.11.285.285 0 0 1-.036-.145c0-.102.042-.176.127-.219l.91-.354-.91-.355a.243.243 0 0 1-.127-.227c0-.055.011-.104.036-.146.06-.09.14-.136.236-.136.043 0 .085.012.128.036.024.012.278.216.764.61-.097-.62-.146-.94-.146-.965 0-.073.028-.135.082-.186s.118-.077.192-.077c.072 0 .136.025.19.077a.247.247 0 0 1 .082.186c0 .025-.048.346-.145.965.485-.394.74-.598.764-.61a.202.202 0 0 1 .127-.036c.098 0 .176.045.237.136a.318.318 0 0 1 .037.137.265.265 0 0 1-.128.236l-.91.355.91.354a.245.245 0 0 1 .128.228.318.318 0 0 1-.037.137.283.283 0 0 1-.364.109c-.024-.012-.28-.215-.764-.61.097.619.145.941.145.964a.245.245 0 0 1-.082.187.266.266 0 0 1-.19.077.269.269 0 0 1-.192-.077zM192.798 136.013a.245.245 0 0 1-.082-.187c0-.023.049-.345.146-.963-.486.394-.74.597-.764.609a.282.282 0 0 1-.364-.11.285.285 0 0 1-.036-.145c0-.102.042-.176.127-.219l.91-.354-.91-.355a.243.243 0 0 1-.127-.227c0-.055.011-.104.036-.146.06-.09.14-.136.236-.136.043 0 .085.012.128.036.024.012.278.216.764.61-.097-.62-.146-.94-.146-.965 0-.073.027-.135.082-.186a.269.269 0 0 1 .192-.077c.072 0 .136.025.19.077a.247.247 0 0 1 .082.186c0 .025-.048.346-.145.965.485-.394.74-.598.764-.61a.202.202 0 0 1 .127-.036c.098 0 .176.045.237.136a.318.318 0 0 1 .037.137.265.265 0 0 1-.128.236l-.91.355.91.354a.245.245 0 0 1 .128.228.318.318 0 0 1-.037.137.283.283 0 0 1-.364.109c-.024-.012-.28-.215-.764-.61.097.619.145.941.145.964a.245.245 0 0 1-.082.187.266.266 0 0 1-.19.077.269.269 0 0 1-.192-.077zM167.189 115.31a1.427 1.427 0 0 1-.598-.505c-.155-.228-.232-.505-.232-.833v-2.185a.252.252 0 0 1 .249-.254c.07 0 .13.025.18.075s.074.11.074.18v2.2c0 .222.05.41.152.565.102.154.235.27.401.349.166.077.343.116.53.116.19 0 .366-.04.532-.116a.963.963 0 0 0 .401-.349c.1-.155.152-.343.152-.564v-2.202a.252.252 0 0 1 .249-.254c.07 0 .13.025.18.075s.075.11.075.18v2.184c0 .328-.079.605-.233.833a1.439 1.439 0 0 1-.598.506 1.816 1.816 0 0 1-1.514 0zM170.296 115.228a.213.213 0 0 1-.094-.183c0-.058.021-.11.061-.155a.202.202 0 0 1 .155-.066c.033 0 .067.007.1.022.117.052.235.092.353.122.119.03.251.044.399.044.409 0 .614-.13.614-.393 0-.085-.048-.149-.142-.193a2.751 2.751 0 0 0-.461-.15 4.096 4.096 0 0 1-.54-.16.946.946 0 0 1-.365-.251.638.638 0 0 1-.151-.446c0-.258.093-.469.28-.63.185-.163.451-.244.798-.244.284 0 .55.046.802.139.052.015.09.042.119.083.027.04.041.083.041.127 0 .058-.02.11-.064.154a.206.206 0 0 1-.157.067.286.286 0 0 1-.072-.011 2.118 2.118 0 0 0-.63-.1c-.2 0-.355.036-.468.109-.112.07-.169.165-.169.279 0 .11.052.191.156.243.102.052.263.102.48.15.218.054.395.109.531.163.137.052.254.136.352.25s.146.268.146.46a.734.734 0 0 1-.279.586c-.186.155-.45.233-.788.233-.37 0-.704-.083-1.007-.25zM173.252 115.092c-.253-.256-.379-.616-.379-1.081 0-.262.048-.504.144-.725.096-.221.243-.4.442-.536.2-.136.445-.205.736-.205.273 0 .508.064.708.19.199.129.35.298.454.51.102.212.154.444.154.694a.241.241 0 0 1-.254.249h-1.875c.03.258.125.459.287.602.162.145.39.216.68.216.156 0 .291-.015.407-.044s.23-.072.341-.127a.219.219 0 0 1 .099-.022c.06 0 .11.02.155.06a.204.204 0 0 1 .066.156c0 .08-.048.149-.143.204a1.956 1.956 0 0 1-.426.182 1.98 1.98 0 0 1-.542.062c-.45 0-.802-.13-1.054-.385zm1.762-1.313a.889.889 0 0 0-.142-.454.766.766 0 0 0-.306-.268.859.859 0 0 0-.371-.086c-.125 0-.248.028-.37.086s-.224.146-.305.268a.897.897 0 0 0-.138.454h1.632zM176.246 115.377a.242.242 0 0 1-.072-.178v-2.372c0-.07.025-.13.072-.18s.107-.074.177-.074c.07 0 .13.025.18.075.05.05.075.11.075.18v.237c.258-.346.547-.52.868-.52h.028c.07 0 .127.025.174.072.046.048.069.107.069.177s-.024.127-.072.171a.257.257 0 0 1-.182.067h-.028a.942.942 0 0 0-.487.13 1.11 1.11 0 0 0-.37.357v1.68a.249.249 0 0 1-.255.249.24.24 0 0 1-.177-.07zM178.365 115.377a.242.242 0 0 1-.073-.178v-2.372c0-.07.025-.13.073-.18s.106-.074.176-.074.13.025.18.075.075.11.075.18v.226c.14-.154.291-.278.453-.37a1.14 1.14 0 0 1 .576-.139c.203 0 .378.048.528.144.15.096.264.227.343.392.079.166.119.349.119.548v1.57c0 .07-.026.13-.075.178s-.11.072-.18.072c-.07 0-.129-.024-.177-.072s-.071-.107-.071-.178v-1.514c0-.45-.203-.675-.609-.675a.88.88 0 0 0-.495.144 1.77 1.77 0 0 0-.412.386v1.66c0 .07-.025.13-.075.177s-.11.072-.18.072-.129-.024-.176-.072zM181.929 115.377a.78.78 0 0 1-.45-.73c0-.273.107-.49.323-.653s.531-.243.948-.243h.67v-.045c0-.243-.06-.418-.18-.525-.12-.107-.307-.16-.562-.16-.14 0-.264.01-.373.033-.108.022-.23.056-.362.1a.286.286 0 0 1-.072.01.196.196 0 0 1-.144-.06.203.203 0 0 1-.06-.15c0-.1.047-.169.143-.21.313-.132.633-.199.957-.199.255 0 .469.052.644.155.175.103.304.237.387.4s.125.343.125.535v1.564c0 .07-.025.13-.075.178s-.11.072-.18.072-.129-.024-.176-.072-.073-.107-.073-.178v-.143c-.272.28-.619.42-1.039.42-.163 0-.312-.032-.451-.099zm1.11-.462c.15-.079.278-.177.38-.296v-.464h-.602c-.557 0-.835.145-.835.436 0 .133.045.24.135.321.09.081.24.122.45.122.163 0 .32-.04.471-.119zM184.841 115.377a.242.242 0 0 1-.072-.178v-2.372c0-.07.024-.13.072-.18s.107-.074.177-.074.13.025.18.075.075.11.075.18v.226c.102-.147.227-.269.373-.365.145-.096.335-.144.567-.144.206 0 .383.056.53.166s.253.245.316.404c.228-.38.567-.57 1.017-.57.207 0 .38.052.518.155.138.103.24.236.307.398.066.163.1.332.1.509v1.592c0 .07-.026.13-.076.178s-.11.072-.18.072c-.069 0-.128-.024-.176-.072s-.073-.107-.073-.178v-1.493c0-.239-.042-.415-.127-.527-.085-.113-.23-.169-.436-.169a.732.732 0 0 0-.468.147 1.425 1.425 0 0 0-.329.383v1.66c0 .07-.024.13-.074.177s-.11.072-.18.072a.24.24 0 0 1-.177-.072.239.239 0 0 1-.072-.178v-1.493c0-.239-.043-.415-.127-.527-.085-.113-.23-.169-.437-.169a.729.729 0 0 0-.467.147 1.408 1.408 0 0 0-.33.383v1.66c0 .07-.025.13-.074.177s-.11.072-.18.072-.129-.024-.177-.072zM190.054 115.092c-.253-.256-.379-.616-.379-1.081 0-.262.048-.504.144-.725.095-.221.243-.4.442-.536.2-.136.444-.205.735-.205.274 0 .51.064.708.19.2.129.351.298.455.51.102.212.154.444.154.694a.241.241 0 0 1-.254.249h-1.875c.03.258.125.459.287.602.162.145.39.216.68.216.156 0 .29-.015.407-.044s.23-.072.34-.127a.219.219 0 0 1 .1-.022c.059 0 .11.02.155.06a.204.204 0 0 1 .066.156c0 .08-.048.149-.143.204a1.956 1.956 0 0 1-.426.182 1.98 1.98 0 0 1-.542.062c-.45 0-.802-.13-1.054-.385zm1.762-1.313a.889.889 0 0 0-.142-.454.766.766 0 0 0-.307-.268.859.859 0 0 0-.37-.086c-.126 0-.249.028-.37.086s-.224.146-.305.268a.897.897 0 0 0-.138.454h1.632z" class="color38297a svgShape"/><path fill="#fe4040" d="M190.125 148.661H168.27c-.622 0-1.126.505-1.126 1.127v6.504c0 .623.504 1.127 1.126 1.127h21.855c.622 0 1.127-.504 1.127-1.127v-6.504c0-.622-.505-1.127-1.127-1.127z" class="colorfe4c40 svgShape"/><path fill="#ffffff" d="M173.275 154.314a.291.291 0 0 1-.09-.216v-2.88a.22.22 0 0 1 .062-.158c.042-.043.094-.066.156-.066s.114.023.157.066a.216.216 0 0 1 .066.158v2.744h1.585c.062 0 .115.022.158.066a.22.22 0 0 1-.158.376h-1.721a.293.293 0 0 1-.215-.09zM176.326 154.292a1.084 1.084 0 0 1-.433-.453c-.103-.196-.153-.42-.153-.672s.05-.476.153-.672c.101-.195.246-.346.433-.453s.407-.16.656-.16c.245 0 .462.054.65.16s.332.258.436.453.155.42.155.672-.052.476-.155.672c-.104.195-.25.347-.437.453s-.404.16-.65.16c-.248 0-.467-.053-.655-.16zm1.036-.335a.74.74 0 0 0 .3-.29.97.97 0 0 0 .12-.505c0-.2-.04-.367-.12-.5-.079-.131-.18-.228-.3-.288s-.248-.09-.38-.09c-.137 0-.265.03-.386.09s-.22.157-.299.288a.984.984 0 0 0-.116.5c0 .204.039.372.116.504.078.133.178.23.299.291a.845.845 0 0 0 .766 0zM179.425 155.494a1.877 1.877 0 0 1-.47-.178c-.058-.036-.088-.093-.088-.17a.2.2 0 0 1 .056-.139.181.181 0 0 1 .139-.06c.025 0 .055.006.087.02.246.122.512.184.8.184.495 0 .742-.264.742-.791v-.325c-.23.246-.506.369-.83.369a1.166 1.166 0 0 1-.999-.57c-.116-.19-.174-.42-.174-.691s.058-.502.175-.692a1.166 1.166 0 0 1 .999-.569c.323 0 .6.123.829.368v-.12c0-.062.021-.115.063-.158a.206.206 0 0 1 .155-.065c.061 0 .114.021.158.065a.212.212 0 0 1 .065.157v2.168c0 .407-.098.72-.296.94s-.478.33-.844.33a2.28 2.28 0 0 1-.567-.073zm.932-1.59c.116-.065.227-.152.334-.262v-1a1.484 1.484 0 0 0-.334-.26.821.821 0 0 0-.404-.098c-.242 0-.44.074-.593.221s-.23.36-.23.638.076.49.23.638.351.22.593.22a.821.821 0 0 0 .404-.096zM181.932 151.354a.238.238 0 0 1-.072-.175v-.02c0-.067.023-.126.072-.174a.24.24 0 0 1 .175-.073h.029c.067 0 .126.025.174.073a.24.24 0 0 1 .073.174v.02a.24.24 0 0 1-.073.175.238.238 0 0 1-.174.072h-.03a.24.24 0 0 1-.174-.072zm.03 3.01a.211.211 0 0 1-.064-.155v-2.08c0-.061.021-.114.063-.157a.206.206 0 0 1 .156-.065c.064 0 .118.02.16.062s.062.096.062.16v2.08c0 .062-.021.114-.065.156s-.096.063-.157.063-.114-.021-.156-.063zM183.168 154.365a.211.211 0 0 1-.063-.156v-2.08c0-.061.021-.114.063-.157.042-.044.094-.065.156-.065s.113.021.157.065a.212.212 0 0 1 .065.157v.2c.123-.136.256-.245.398-.326.142-.08.31-.12.505-.12.177 0 .332.041.462.125s.232.2.301.345.105.305.105.48v1.376a.221.221 0 0 1-.224.219c-.061 0-.113-.021-.155-.063s-.063-.094-.063-.156v-1.328c0-.394-.177-.592-.533-.592-.162 0-.307.042-.434.126s-.249.198-.362.34v1.454c0 .062-.021.114-.065.156s-.096.063-.157.063-.114-.021-.156-.063z" class="colorfff svgShape"/><path fill="#f4ce98" d="M52.016 107.233c-6.7.656-6.908-10.251-6.908-10.251s.871-2.015.962-3.837a23.733 23.733 0 0 0-.034-3.204l10.141 3.441c0 .294.011.566.045.815.12 1.203 1.084 2.244 1.462 2.785.451.643.315.667.315.667s.717 8.927-5.983 9.584z" class="colorf4a998 svgShape"/><path fill="#f2d8b3" d="M40.28 79.467a2.557 2.557 0 0 0 1.675-.518l.003-.002c.525-.4.881-.993.974-1.646.63-4.425 3.486-4.531 6.821-5.706 4.544-1.6 9.596-.821 11.216 1.707 3.24 5.055 1.996 21.557-6.62 23.593-7.224 1.706-11.717-7.246-12.029-9.085a2.564 2.564 0 0 0-.198-.648c-.446-.973-1.798-3.91-2.744-5.9a2.538 2.538 0 0 1-.247-1.096v-.757l1.15.058z" class="colorf2c3b3 svgShape"/><path fill="#000000" d="M62.67 70.142c-3.028-.612-4.95-1.943-4.95-1.943-13.786-8.568-14.73 4.569-14.73 4.569-2.981-1.704-5.289 3.005-5.289 3.005-3.952 7.23 6.403 16.17 6.817 16.395-.035-.142-1.248-5.046-1.47-7.022-.84-.45-2.57-2.04-2.167-3.424.65-2.225 2.145-.6 2.997.572.982-2.26 1.716-4.65 1.716-4.65 8.998 2.305 14.81-.03 18.253-2.668 1.863-1.427 1.123-4.37-1.177-4.834z" class="color20154f svgShape"/><ellipse cx="59.731" cy="84.354" fill="#000000" rx=".765" ry="1.27" class="color20154f svgShape"/><ellipse cx="52.234" cy="84.463" fill="#000000" rx=".765" ry="1.27" class="color20154f svgShape"/><path fill="#000000" d="M58.291 80.89a.251.251 0 0 1 .055-.35 2.497 2.497 0 0 1 2.752-.126.25.25 0 0 1 .087.343.254.254 0 0 1-.343.087 1.995 1.995 0 0 0-2.201.1.25.25 0 0 1-.35-.054zM52.226 92.646c-.003 2.612 3.98 3.106 4.928.207-1.402.703-3.666.41-4.928-.207zM54.792 90.609a.25.25 0 0 1-.159-.316.247.247 0 0 1 .316-.159c1.88.613 2.782.233 1.829-1.49-.634-1.146-.791-2.923-.797-2.998a.25.25 0 0 1 .227-.27c.159-.02.26.09.27.227.003.017.155 1.747.737 2.799 1.021 1.847.268 3.088-2.423 2.207zM50.42 81.88a.25.25 0 0 1 .036-.352 2.495 2.495 0 0 1 2.743-.26.25.25 0 1 1-.235.442 1.999 1.999 0 0 0-2.193.206.25.25 0 0 1-.352-.037z" class="color20154f svgShape"/><path fill="#f2d8b3" d="M65.675 235.691v11.24c0 2.229-5.76 2.229-5.76 0l-1.857-11.24h7.617zM41.397 235.005l-1.709 11.108c-.34 2.204-6.031 1.328-5.692-.876l-.127-11.39 7.528 1.158z" class="colorf2c3b3 svgShape"/><path fill="#fe4040" d="m37.015 101.857 8.784-2.698c-.055 3.829 1.69 6.176 5.605 6.736 2.661-1.54 4.557-3.762 5.604-6.736l13.636 4.193 4.851 6.563-6.117 52.633H33.414l-5.928-51.007c.468-.77 2.126-7.41 9.53-9.684z" class="colorfe4c40 svgShape"/><path fill="#ff0202" d="M57.684 96.982c-1.465 3.732-3.588 6.67-6.288 8.907l6.607 2.857 4.01-8.049-4.329-3.715zM45.108 96.982l-4.354 3.726 4.035 8.038 6.607-2.857c-2.941-1.713-4.927-4.846-6.288-8.907z" class="colorea241f svgShape"/><path fill="#f2d8b3" d="m58.422 136.78 2.301.034s-1.478-2.833-2.895-2.792c-1.372.042.354 2.558.594 2.757z" class="colorf2c3b3 svgShape"/><path fill="#282828" d="M33.427 163.023c-.309 16.859-1.378 77.7-1.378 77.7 2.863 1.486 6.12 1.892 9.971.672l9.046-51.919 5.932 51.125c4.166 2.039 7.761 2.002 10.802-.054l2.1-77.524H33.428z" class="color022e4f svgShape"/><path fill="#4d4d4d" d="M55.082 163.023H33.427c-.309 16.859-1.378 77.7-1.378 77.7 2.863 1.486 6.12 1.892 9.971.672l9.046-51.919c2.815-10.791 3.964-16.685 4.016-26.453z" class="color1c587e svgShape"/><path fill="#282828" d="M69.711 159.959h-36.49c-.782 0-1.415.634-1.415 1.415v2.361c0 .782.633 1.416 1.415 1.416h36.49c.782 0 1.416-.634 1.416-1.416v-2.36c0-.782-.634-1.416-1.416-1.416z" class="color022e4f svgShape"/><path fill="#4d4d4d" d="M58.056 160.457v4.182a1.27 1.27 0 0 1-1.283 1.283h-7.697a1.279 1.279 0 0 1-1.283-1.283v-4.182c0-.706.577-1.283 1.283-1.283h7.697c.718 0 1.283.577 1.283 1.283z" class="color1c587e svgShape"/><path fill="#f2d8b3" d="m58.422 136.78 2.301.034s-1.478-2.833-2.895-2.792c-1.372.042.354 2.558.594 2.757z" class="colorf2c3b3 svgShape"/><path fill="#fe4040" d="M70.644 103.352s7.092 3.44 11.222 14.927c-1.243 3.847-4.965 7.26-9.54 8.685 0 0-8.263-13.47-1.682-23.612z" class="colorfe4c40 svgShape"/><path fill="#515151" d="m35.748 134.175 44.285-8.844-33.18 18.827-11.478-6.538c-1.25-.906-1.042-2.827.373-3.445z" class="color38297a svgShape"/><path fill="#f2d8b3" d="M63.95 136.078c-.83.912-2.704 1.492-4.04 1.616-3.304.32-3.335-.912-6.297.476-2.972 1.378-19.543 4.06-19.988 3.967-.456-.104-3.055.58-4.38-2.165-1.326-2.744-3.004-18.662-3.004-18.662l9.818-1.212s1.108 11.962 1.17 13.598c0 0 3.925-.766 9.756.197 0 0 6.763.28 8.69-1.17 1.936-1.45 1.139-4.36 2.765-3.667.88.373.393 2.703.393 2.703s3.915-1.387 4.92-.466c1.066.984 1.408 3.418.196 4.785z" class="colorf2c3b3 svgShape"/><path fill="#000000" d="m46.133 142.188 3.53-26.121a2.256 2.256 0 0 1 1.974-1.94l38.514-4.485a2.256 2.256 0 0 1 2.497 2.543l-3.53 26.122a2.256 2.256 0 0 1-1.974 1.939L48.63 144.73a2.256 2.256 0 0 1-2.497-2.543z" class="color20154f svgShape"/><path fill="#f2d8b3" d="M73.61 140.154c-.839.265-1.176.742-1.275 1.227-.168.826.425 1.638 1.248 1.823 2.482.556 4.164-.378 4.896-.928.3-.225.517-.55.609-.913.646-2.56-3.454-1.848-5.477-1.21z" class="colorf2c3b3 svgShape"/><path fill="#515151" d="M70.757 123.842c1.92-.585 3.418.462 3.347 2.338-.071 1.875-1.685 3.87-3.604 4.455s-3.418-.462-3.347-2.337c.07-1.876 1.684-3.87 3.604-4.456z" class="color38297a svgShape"/><path fill="#fe4040" d="M32.24 104.427s-6.669 5.54-6.742 17.745c2.452 3.214 7.098 5.194 11.886 5.016 0 0 4.437-15.385-5.144-22.76z" class="colorfe4c40 svgShape"/><path fill="#000000" d="M32.534 242.85c.426-.348.932-.558 1.26-.117 1.151 1.543 4.372 3.948 5.783.69.246-.568 1.13-.438 1.45.093.99 1.651 3.884 4.15 5.693 4.789 0 0 4.201 1.398 5.905.826 1.703-.572 3.793 5.326-14.253 4.023-6.54-.472-8.087-1.943-8.14-3.958-.018-.652 1.935-6.047 2.302-6.346z" class="color20154f svgShape"/><path fill="#fe4040" d="M38.503 251.755c10.326.746 14.057-.866 15.043-2.275.79 1.2-.973 4.846-15.31 3.81-6.349-.458-9.04-1.653-8.005-4.094.488 1.472 3.298 2.2 8.272 2.56z" class="colorfe4c40 svgShape"/><path fill="#000000" d="M58.157 242.85c.426-.348.932-.558 1.26-.117 1.15 1.543 4.372 3.948 5.783.69.246-.568 1.13-.438 1.45.093.99 1.651 3.884 4.15 5.693 4.789 0 0 4.201 1.398 5.905.826 1.703-.572 3.792 5.326-14.253 4.023-6.541-.472-8.087-1.943-8.14-3.958-.018-.652 1.935-6.047 2.302-6.346z" class="color20154f svgShape"/><path fill="#fe4040" d="M64.125 251.755c10.326.746 14.058-.866 15.043-2.275.791 1.2-.973 4.846-15.31 3.81-6.348-.458-9.04-1.653-8.004-4.094.487 1.472 3.298 2.2 8.271 2.56z" class="colorfe4c40 svgShape"/><circle cx="108.328" cy="92.203" r="16.979" fill="#ffffff" class="colorfff svgShape"/><path fill="#515151" d="M112.194 91.303a.86.86 0 0 1-.861-.862v-3.065a3.176 3.176 0 0 0-3.173-3.173 3.177 3.177 0 0 0-3.178 3.173.86.86 0 1 1-1.722 0c0-2.7 2.196-4.896 4.895-4.896 2.704 0 4.9 2.196 4.9 4.896v3.065a.86.86 0 0 1-.861.862z" class="color38297a svgShape"/><path fill="#ffbf66" d="M113.55 90.182h-10.444c-.828 0-1.499.67-1.499 1.498v7.803c0 .828.671 1.499 1.499 1.499h10.443c.828 0 1.499-.671 1.499-1.499V91.68c0-.828-.671-1.498-1.499-1.498z" class="coloree984f svgShape"/><path fill="#000000" d="M109.616 94.738c0 .527-.318.977-.768 1.179v2.528h-1.04v-2.528a1.293 1.293 0 0 1-.767-1.18 1.29 1.29 0 0 1 1.287-1.287 1.29 1.29 0 0 1 1.288 1.288z" class="color20154f svgShape"/><path fill="#fcb95c" d="M62.154 50.023h33.292c.927 0 1.679.751 1.679 1.679v9.815a1.68 1.68 0 0 1-1.68 1.68h-27.81l-3.8 3.351a.386.386 0 0 1-.64-.29v-3.062h-1.041a1.68 1.68 0 0 1-1.68-1.679v-9.815c0-.928.752-1.68 1.68-1.68z" class="color5cb8fc svgShape"/><circle cx="66.312" cy="56.254" r="1.528" fill="#ffffff" class="colorfff svgShape"/><circle cx="71.307" cy="56.254" r="1.528" fill="#ffffff" class="colorfff svgShape"/><circle cx="76.302" cy="56.254" r="1.528" fill="#ffffff" class="colorfff svgShape"/><circle cx="81.297" cy="56.254" r="1.528" fill="#ffffff" class="colorfff svgShape"/><circle cx="86.292" cy="56.254" r="1.528" fill="#ffffff" class="colorfff svgShape"/><circle cx="91.288" cy="56.254" r="1.528" fill="#ffffff" class="colorfff svgShape"/></svg>